<?xml version="1.0" standalone="no"?>
<!DOCTYPE svg PUBLIC "-//W3C//DTD SVG 20010904//EN"
 "http://www.w3.org/TR/2001/REC-SVG-20010904/DTD/svg10.dtd">
<svg version="1.0" xmlns="http://www.w3.org/2000/svg"
 width="200.000000pt" height="200.000000pt" viewBox="0 0 200.000000 200.000000"
 preserveAspectRatio="xMidYMid meet">

<g transform="translate(0.000000,200.000000) scale(0.100000,-0.100000)"
fill="#000000" stroke="none">
<path d="M560 1045 c0 -130 4 -205 10 -205 6 0 10 75 10 205 0 130 -4 205 -10
205 -6 0 -10 -75 -10 -205z"/>
<path d="M125 1187 c-18 -14 -20 -27 -20 -142 0 -159 -1 -158 136 -153 85 3
100 6 138 31 47 31 63 63 63 124 0 97 -65 143 -207 150 -70 4 -94 1 -110 -10z
m214 -62 c16 -8 31 -22 35 -30 12 -33 6 -93 -13 -116 -17 -21 -29 -24 -110
-27 l-91 -4 0 96 0 96 75 0 c47 0 87 -6 104 -15z"/>
<path d="M730 1185 c-6 -7 -10 -35 -8 -62 l3 -48 54 0 c40 1 57 6 67 20 19 26
18 59 -3 78 -24 21 -99 29 -113 12z m97 -26 c30 -26 0 -69 -47 -69 -35 0 -38
5 -32 54 4 36 6 38 35 32 16 -3 36 -11 44 -17z"/>
<path d="M904 1186 c-3 -8 -4 -35 -2 -62 l3 -49 53 -3 c31 -2 52 1 52 7 0 6
-20 11 -45 11 -33 0 -45 4 -45 15 0 10 10 15 34 15 39 0 60 19 24 22 -13 0
-30 1 -38 2 -8 1 -15 7 -15 15 0 10 12 15 39 15 60 1 55 22 -4 23 -34 1 -53
-3 -56 -11z"/>
<path d="M1050 1188 c1 -20 53 -111 66 -115 12 -4 74 94 74 117 0 22 -25 -6
-45 -50 -10 -22 -21 -40 -24 -40 -3 0 -19 23 -34 50 -29 51 -37 60 -37 38z"/>
<path d="M1223 1188 c-2 -5 3 -8 11 -8 12 0 16 -11 16 -45 0 -33 -4 -45 -15
-45 -8 0 -15 -4 -15 -10 0 -5 18 -10 40 -10 40 0 53 13 25 24 -9 3 -15 19 -15
41 0 22 6 38 15 41 8 4 15 10 15 15 0 11 -70 7 -77 -3z"/>
<path d="M1340 1155 c0 -57 27 -88 72 -83 45 4 73 45 64 92 -8 44 -26 38 -26
-9 0 -50 -9 -65 -39 -65 -38 0 -51 17 -51 67 0 24 -4 43 -10 43 -5 0 -10 -20
-10 -45z"/>
<path d="M1545 1188 c-27 -15 -35 -28 -35 -60 0 -43 55 -71 104 -52 29 11 16
23 -19 17 -41 -7 -65 9 -65 43 0 33 40 52 75 36 20 -9 25 -9 25 2 0 24 -53 32
-85 14z"/>
<path d="M1697 1180 c-71 -56 16 -147 91 -94 25 17 31 74 9 93 -28 23 -71 23
-100 1z m74 -10 c21 -12 25 -50 7 -68 -22 -22 -67 -14 -80 13 -9 21 -8 28 7
45 20 22 37 25 66 10z"/>
<path d="M742 1013 c-21 -4 -23 -9 -20 -59 2 -30 8 -54 13 -54 6 0 11 5 11 10
1 6 2 15 3 20 0 6 18 10 40 10 21 0 44 6 51 15 18 21 3 55 -25 55 -13 0 -29 2
-37 4 -7 2 -23 1 -36 -1z m77 -22 c21 -14 3 -31 -33 -31 -38 0 -47 6 -39 26 6
16 50 19 72 5z"/>
<path d="M933 1008 c-30 -40 -62 -107 -53 -113 6 -3 13 1 16 9 8 22 82 21 106
-1 28 -25 23 1 -13 63 -32 56 -40 62 -56 42z m27 -27 c0 -5 3 -16 6 -25 4 -11
0 -16 -13 -16 -28 0 -34 9 -20 31 12 20 27 25 27 10z"/>
<path d="M1040 1012 c0 -4 14 -21 30 -37 17 -16 30 -39 30 -51 0 -13 5 -26 10
-29 10 -6 11 -5 15 32 1 12 16 34 34 48 17 15 28 31 25 36 -3 5 -19 -2 -36
-16 -35 -29 -41 -30 -58 -9 -17 20 -50 37 -50 26z"/>
</g>
</svg>
