<?xml version="1.0" standalone="no"?>
<!DOCTYPE svg PUBLIC "-//W3C//DTD SVG 20010904//EN"
 "http://www.w3.org/TR/2001/REC-SVG-20010904/DTD/svg10.dtd">
<svg version="1.0" xmlns="http://www.w3.org/2000/svg"
 width="501.000000pt" height="501.000000pt" viewBox="0 0 501.000000 501.000000"
 preserveAspectRatio="xMidYMid meet">

<g transform="translate(0.000000,501.000000) scale(0.100000,-0.100000)"
fill="#000000" stroke="none">
<path d="M3005 3184 c-128 -27 -206 -67 -279 -143 -57 -60 -104 -143 -127
-226 -22 -78 -19 -305 5 -375 60 -179 176 -292 341 -336 81 -22 233 -18 312 8
93 31 176 96 225 178 35 59 44 81 64 163 l6 28 -123 -3 -122 -3 -10 -30 c-28
-87 -100 -135 -202 -135 -100 0 -159 34 -202 115 -66 123 -55 344 22 455 56
81 187 114 280 71 45 -20 92 -70 101 -107 6 -24 7 -24 131 -24 l126 0 -7 43
c-16 99 -94 211 -184 264 -84 49 -259 77 -357 57z"/>
<path d="M4018 3166 c-156 -46 -264 -151 -320 -313 -20 -59 -23 -87 -23 -213
0 -155 9 -197 63 -304 53 -107 188 -209 313 -235 69 -15 234 -14 294 3 135 36
258 131 310 241 51 109 59 150 59 295 0 121 -3 143 -27 214 -77 221 -249 336
-502 335 -64 0 -113 -7 -167 -23z m314 -231 c75 -53 118 -159 118 -295 0 -239
-125 -369 -316 -330 -51 10 -66 19 -110 64 -63 65 -84 131 -84 266 0 119 21
196 68 251 53 62 100 80 199 77 72 -3 86 -6 125 -33z"/>
<path d="M460 3139 c-60 -27 -107 -74 -136 -134 -24 -49 -24 -54 -24 -381 l0
-332 28 -53 c31 -60 101 -120 162 -138 52 -15 653 -14 697 2 63 24 117 72 151
134 l32 61 0 328 c0 298 -2 333 -19 370 -27 58 -77 112 -132 140 l-48 24 -333
0 c-313 0 -336 -2 -378 -21z m400 -102 c32 -165 28 -161 89 -72 29 42 55 74
57 72 2 -2 -3 -39 -11 -83 -23 -123 -26 -120 65 -63 45 29 84 49 87 46 3 -4
-5 -21 -19 -39 -39 -52 -81 -128 -70 -128 5 0 49 7 97 15 48 9 89 14 92 12 2
-2 -31 -28 -72 -57 -42 -28 -75 -53 -73 -55 2 -2 53 -13 113 -25 61 -12 119
-24 130 -27 12 -4 -30 -17 -108 -33 -70 -15 -130 -29 -132 -32 -3 -2 29 -28
71 -57 41 -29 73 -55 71 -57 -2 -2 -38 3 -80 12 -123 25 -125 23 -66 -69 28
-43 49 -81 46 -84 -3 -2 -40 19 -82 47 -42 28 -79 49 -82 46 -3 -3 2 -47 11
-97 9 -50 15 -93 13 -96 -3 -2 -29 32 -59 77 l-55 80 -22 -102 c-11 -57 -24
-118 -28 -137 -8 -45 -13 -31 -43 122 l-23 117 -55 -80 c-30 -45 -56 -79 -59
-77 -2 3 4 46 13 96 9 50 14 94 11 97 -3 4 -40 -17 -83 -45 -42 -29 -79 -50
-81 -47 -2 2 18 41 46 85 58 94 59 93 -70 66 -40 -9 -74 -13 -76 -11 -2 2 30
28 72 57 49 34 71 55 63 60 -7 4 -66 17 -131 30 -65 12 -112 26 -105 29 7 4
66 17 131 30 64 12 117 24 117 26 0 1 -34 26 -75 55 -42 28 -74 54 -72 56 2 2
46 -4 97 -12 50 -9 94 -15 96 -13 2 2 -19 39 -47 82 -27 43 -48 81 -45 83 3 3
40 -17 83 -45 43 -27 79 -46 81 -42 2 5 -4 48 -12 97 -8 48 -13 89 -12 91 2 2
28 -31 57 -72 29 -42 54 -74 56 -73 3 3 53 244 53 255 0 3 2 3 5 1 2 -3 14
-53 25 -112z"/>
<path d="M1530 2848 c0 -346 10 -472 40 -542 37 -88 151 -176 265 -205 52 -14
228 -14 280 0 119 30 236 124 270 214 18 45 20 87 23 448 l3 397 -130 0 -130
0 -3 -377 c-3 -424 -3 -424 -74 -458 -55 -26 -163 -24 -208 4 -69 43 -71 53
-74 464 l-3 367 -130 0 -129 0 0 -312z"/>
<path d="M2603 2007 c-13 -5 -23 -14 -23 -19 0 -11 11 -10 39 6 29 16 15 28
-16 13z"/>
<path d="M680 1990 c0 -11 7 -20 15 -20 8 0 15 9 15 20 0 11 -7 20 -15 20 -8
0 -15 -9 -15 -20z"/>
<path d="M1370 1991 c0 -15 6 -21 21 -21 14 0 19 5 17 17 -5 26 -38 29 -38 4z"/>
<path d="M2090 1997 c-35 -18 -52 -55 -46 -102 6 -48 35 -75 80 -75 37 0 49 7
65 38 18 34 -15 43 -40 11 -27 -36 -54 -16 -54 41 0 55 26 77 53 44 11 -14 23
-19 33 -15 24 9 6 49 -26 61 -33 12 -35 12 -65 -3z"/>
<path d="M2810 1990 c0 -13 7 -20 20 -20 13 0 20 7 20 20 0 13 -7 20 -20 20
-13 0 -20 -7 -20 -20z"/>
<path d="M3775 2003 c-85 -20 -67 -183 20 -183 49 0 75 31 75 91 0 68 -38 105
-95 92z m49 -49 c19 -51 -4 -114 -38 -101 -20 8 -31 70 -17 96 14 25 46 28 55
5z"/>
<path d="M4050 1990 c0 -11 7 -20 15 -20 8 0 15 9 15 20 0 11 -7 20 -15 20 -8
0 -15 -9 -15 -20z"/>
<path d="M300 1920 c0 -68 3 -81 19 -90 29 -15 87 -12 105 6 22 22 23 164 1
164 -11 0 -15 -16 -17 -66 -3 -70 -18 -94 -52 -81 -13 5 -16 21 -16 77 0 63
-2 70 -20 70 -18 0 -20 -7 -20 -80z"/>
<path d="M1540 1975 c0 -22 -3 -25 -24 -19 -34 8 -56 -19 -56 -70 0 -54 12
-64 73 -64 l47 0 0 89 c0 82 -1 89 -20 89 -15 0 -20 -7 -20 -25z m-2 -79 c4
-29 -14 -60 -29 -50 -11 6 -12 68 -2 78 13 13 28 -1 31 -28z"/>
<path d="M1890 1975 c0 -22 -3 -24 -29 -19 -34 7 -61 -23 -61 -69 0 -52 15
-66 70 -65 l50 1 0 89 c0 72 -3 88 -15 88 -9 0 -15 -9 -15 -25z m-4 -72 c11
-42 -19 -74 -39 -42 -13 21 -1 69 18 69 8 0 18 -12 21 -27z"/>
<path d="M2430 1984 c0 -9 -8 -23 -17 -31 -13 -10 -15 -16 -5 -19 6 -3 12 -18
12 -34 0 -50 17 -80 45 -80 16 0 25 6 25 15 0 8 -7 15 -15 15 -11 0 -15 11
-15 35 0 22 6 38 15 41 8 4 15 12 15 20 0 8 -7 14 -15 14 -8 0 -15 9 -15 20 0
11 -7 20 -15 20 -8 0 -15 -7 -15 -16z"/>
<path d="M2710 1910 c0 -83 1 -90 20 -90 19 0 20 7 20 90 0 83 -1 90 -20 90
-19 0 -20 -7 -20 -90z"/>
<path d="M3390 1975 c0 -22 -3 -25 -24 -19 -34 8 -56 -19 -56 -70 0 -54 12
-64 73 -64 l47 0 0 89 c0 82 -1 89 -20 89 -15 0 -20 -7 -20 -25z m-2 -85 c3
-32 -12 -55 -30 -44 -10 6 -11 68 -1 78 14 14 28 -2 31 -34z"/>
<path d="M4500 1984 c0 -9 -8 -23 -17 -30 -17 -12 -17 -14 -1 -26 11 -8 18
-30 20 -58 3 -41 6 -45 31 -48 29 -4 39 21 12 32 -9 3 -15 18 -15 36 0 18 6
33 15 36 8 4 15 12 15 20 0 8 -7 14 -15 14 -8 0 -15 9 -15 20 0 11 -7 20 -15
20 -8 0 -15 -7 -15 -16z"/>
<path d="M507 1953 c-4 -3 -7 -35 -7 -70 0 -56 2 -63 19 -63 17 0 20 8 23 53
2 38 7 52 18 52 11 0 16 -14 18 -53 2 -43 6 -53 19 -50 9 2 16 6 15 11 -1 4
-2 31 -2 61 0 46 -3 56 -20 61 -12 4 -27 2 -35 -5 -9 -7 -15 -8 -20 0 -7 12
-19 13 -28 3z"/>
<path d="M680 1890 c0 -56 3 -70 15 -70 12 0 15 14 15 70 0 56 -3 70 -15 70
-12 0 -15 -14 -15 -70z"/>
<path d="M760 1952 c0 -4 9 -36 21 -71 15 -44 26 -61 37 -59 15 3 50 85 51
121 2 32 -17 17 -32 -25 -10 -28 -17 -38 -21 -28 -3 8 -10 27 -15 43 -9 24
-41 39 -41 19z"/>
<path d="M931 1934 c-25 -32 -27 -61 -5 -92 18 -26 75 -30 94 -7 18 21 4 32
-21 17 -16 -10 -24 -10 -35 -1 -25 20 -15 29 31 29 51 0 57 12 24 54 -12 15
-30 26 -44 26 -14 0 -32 -11 -44 -26z m64 -13 c3 -5 1 -13 -5 -16 -15 -9 -43
3 -35 15 8 13 32 13 40 1z"/>
<path d="M1090 1889 c0 -62 2 -69 20 -69 17 0 20 7 20 45 0 31 5 47 15 51 8 4
15 14 15 23 0 13 -9 17 -35 18 l-35 1 0 -69z"/>
<path d="M1214 1939 c-23 -26 -10 -50 34 -64 18 -5 32 -12 32 -16 0 -17 -23
-21 -46 -8 -28 15 -42 6 -24 -16 25 -30 110 -10 110 26 0 16 -40 49 -60 49
-11 0 -20 5 -20 11 0 7 12 9 35 5 38 -8 48 7 16 24 -30 16 -56 12 -77 -11z"/>
<path d="M1370 1890 c0 -63 2 -71 18 -68 14 3 17 14 17 68 0 54 -3 65 -17 68
-16 3 -18 -5 -18 -68z"/>
<path d="M1650 1942 c-20 -16 -21 -20 -7 -25 9 -3 19 -2 22 3 10 16 45 11 45
-5 0 -10 -10 -15 -29 -15 -34 0 -54 -20 -49 -52 3 -21 9 -23 61 -24 l57 -1 0
58 c0 47 -4 60 -19 69 -29 15 -56 12 -81 -8z m51 -95 c-8 -8 -14 -7 -23 2 -11
10 -9 15 7 27 18 13 20 13 23 -2 2 -9 -1 -21 -7 -27z"/>
<path d="M2259 1940 l-24 -21 44 7 c34 5 42 3 39 -7 -3 -8 -15 -16 -29 -17
-35 -6 -50 -22 -47 -51 3 -24 6 -26 61 -27 l57 -1 0 58 c0 47 -4 60 -19 69
-30 15 -56 12 -82 -10z m57 -85 c-7 -19 -36 -19 -36 0 0 17 33 38 38 24 2 -5
1 -16 -2 -24z"/>
<path d="M2556 1944 c-46 -45 -25 -117 36 -122 42 -4 68 23 68 70 0 55 -68 89
-104 52z m59 -58 c0 -46 -20 -59 -34 -23 -13 33 -3 69 18 65 11 -2 16 -14 16
-42z"/>
<path d="M2817 1954 c-4 -4 -7 -36 -7 -71 0 -57 2 -63 20 -63 19 0 21 5 18 67
-3 61 -14 84 -31 67z"/>
<path d="M2922 1940 c-26 -24 -28 -66 -6 -98 12 -18 24 -22 51 -20 20 2 41 10
47 20 15 24 0 34 -28 19 -13 -8 -29 -10 -35 -7 -13 9 -14 46 -1 66 7 12 12 12
34 0 33 -17 45 -6 21 20 -23 26 -55 25 -83 0z"/>
<path d="M3091 1944 c-18 -13 -20 -18 -10 -25 7 -4 19 -3 26 3 15 12 47 3 38
-12 -3 -5 -17 -10 -29 -10 -30 0 -48 -22 -44 -52 3 -21 9 -23 62 -25 l58 -1
-4 60 c-3 37 -10 63 -19 69 -22 13 -52 11 -78 -7z m59 -68 c0 -2 -3 -11 -6
-20 -9 -23 -34 -20 -34 4 0 13 7 20 20 20 11 0 20 -2 20 -4z"/>
<path d="M3500 1940 c-26 -26 -26 -81 -2 -103 23 -21 75 -22 92 -2 18 21 5 30
-24 17 -17 -7 -27 -7 -35 1 -19 19 -12 26 32 29 36 3 42 6 39 23 -4 25 -38 55
-63 55 -10 0 -28 -9 -39 -20z m65 -19 c3 -5 1 -13 -5 -16 -15 -9 -43 3 -35 15
8 13 32 13 40 1z"/>
<path d="M3930 1890 c0 -56 3 -70 15 -70 11 0 15 11 15 37 0 24 8 45 21 59 23
25 17 53 -7 33 -10 -8 -14 -8 -14 0 0 6 -7 11 -15 11 -12 0 -15 -14 -15 -70z"/>
<path d="M4050 1890 c0 -56 3 -70 15 -70 12 0 15 14 15 70 0 56 -3 70 -15 70
-12 0 -15 -14 -15 -70z"/>
<path d="M4162 1944 c-27 -18 -31 -84 -6 -108 25 -26 104 -15 104 14 0 14 -33
13 -47 -1 -13 -13 -33 -4 -33 17 0 10 12 14 40 14 36 0 40 3 40 24 0 26 -33
56 -60 56 -9 0 -26 -7 -38 -16z m56 -26 c-7 -19 -38 -22 -38 -4 0 10 9 16 21
16 12 0 19 -5 17 -12z"/>
<path d="M4314 1946 c-3 -7 -4 -38 -2 -67 2 -42 7 -55 21 -57 14 -3 17 4 17
40 0 24 4 49 9 57 16 25 31 1 31 -50 0 -43 3 -49 20 -49 19 0 21 5 18 61 -3
70 -22 94 -58 72 -12 -8 -21 -9 -25 -3 -9 14 -25 12 -31 -4z"/>
<path d="M4621 1934 c-25 -32 -27 -61 -5 -92 20 -29 74 -30 99 -2 18 19 17 20
-1 20 -11 0 -25 -5 -32 -12 -8 -8 -15 -8 -27 2 -26 21 -17 30 30 30 37 0 45 3
45 18 0 25 -41 62 -67 62 -12 0 -31 -12 -42 -26z m64 -13 c3 -5 1 -13 -5 -16
-15 -9 -43 3 -35 15 8 13 32 13 40 1z"/>
</g>
</svg>
