<?xml version="1.0" standalone="no"?>
<!DOCTYPE svg PUBLIC "-//W3C//DTD SVG 20010904//EN"
 "http://www.w3.org/TR/2001/REC-SVG-20010904/DTD/svg10.dtd">
<svg version="1.0" xmlns="http://www.w3.org/2000/svg"
 width="1485.000000pt" height="378.000000pt" viewBox="0 0 1485.000000 378.000000"
 preserveAspectRatio="xMidYMid meet">

<g transform="translate(0.000000,378.000000) scale(0.100000,-0.100000)"
fill="#000000" stroke="none">
<path d="M4155 3278 c-3 -24 -4 -734 -3 -1578 l3 -1535 73 -3 72 -3 0 1581 0
1580 -69 0 -70 0 -6 -42z"/>
<path d="M1060 2880 c-73 -6 -96 -12 -153 -44 -64 -36 -69 -41 -109 -124 l-43
-85 0 -866 0 -866 23 -72 c27 -87 70 -146 137 -187 l50 -31 655 0 c602 0 660
1 720 18 310 86 424 135 556 233 78 59 194 176 241 245 55 80 121 223 136 294
9 39 16 66 17 60 0 -5 8 6 17 25 35 75 26 442 -12 505 -6 11 -17 49 -24 85 -7
36 -28 97 -47 137 -18 39 -34 74 -34 78 0 11 -88 134 -135 190 -76 89 -255
214 -375 264 -30 12 -71 30 -90 41 -19 10 -71 25 -115 34 -44 8 -107 25 -140
36 -43 16 -100 24 -200 30 -163 10 -951 10 -1075 0z m1175 -441 c32 -6 68 -17
79 -24 12 -7 45 -20 75 -29 144 -42 303 -171 367 -299 55 -108 66 -154 71
-302 4 -88 1 -168 -7 -215 -7 -41 -12 -86 -11 -100 0 -17 -2 -21 -8 -12 -6 9
-17 -7 -37 -55 -32 -74 -119 -176 -182 -214 -21 -12 -44 -31 -53 -41 -8 -11
-51 -30 -95 -43 -43 -13 -106 -34 -139 -46 -59 -23 -66 -23 -550 -23 l-490 -1
-3 708 -2 707 463 0 c289 0 485 -4 522 -11z"/>
<path d="M7782 2880 c-14 -6 -22 -17 -20 -27 2 -10 -2 -17 -9 -16 -7 2 -16 -9
-19 -23 -7 -29 6 -59 96 -218 28 -49 76 -137 107 -195 120 -225 226 -407 255
-438 34 -36 78 -47 143 -37 36 5 54 16 92 55 46 47 79 103 278 469 40 74 90
166 110 204 37 67 38 71 31 144 -3 42 -10 80 -15 85 -5 5 -33 6 -63 3 -52 -7
-54 -8 -93 -69 -21 -34 -50 -86 -63 -116 -13 -29 -31 -62 -41 -72 -10 -11 -24
-37 -31 -59 -7 -22 -20 -47 -29 -57 -10 -10 -31 -47 -49 -83 -18 -36 -40 -78
-49 -95 -9 -16 -25 -59 -35 -94 -18 -66 -37 -89 -75 -92 -13 -1 -28 -2 -35 -3
-6 -1 -17 24 -24 55 -12 52 -179 393 -211 430 -7 8 -13 19 -13 24 0 5 -26 52
-57 106 -72 122 -110 147 -181 119z"/>
<path d="M9972 2882 c-7 -5 -17 -24 -22 -43 -13 -45 -13 -501 0 -570 24 -125
112 -234 242 -299 l80 -40 168 0 c156 0 172 2 236 26 120 45 193 113 255 240
l44 89 0 250 0 250 -35 54 -34 53 -56 -6 c-30 -4 -59 -11 -65 -17 -6 -6 -12
-127 -16 -307 -5 -288 -11 -342 -38 -342 -5 0 -18 -16 -30 -35 -11 -20 -29
-38 -38 -41 -10 -3 -39 -16 -64 -30 -41 -21 -60 -24 -150 -24 -99 0 -104 1
-166 36 -57 32 -123 99 -123 126 0 5 -9 28 -20 51 -30 61 -41 167 -38 377 1
102 -2 191 -6 198 -8 13 -104 16 -124 4z"/>
<path d="M11583 2881 c-44 -6 -68 -14 -80 -29 -10 -11 -44 -28 -75 -36 -36
-10 -62 -24 -68 -37 -6 -11 -22 -24 -36 -29 -14 -6 -32 -23 -42 -39 -9 -17
-24 -32 -32 -34 -20 -5 -50 -92 -50 -147 0 -29 -3 -40 -9 -31 -12 19 -19 3
-26 -66 -6 -49 -3 -76 15 -134 49 -163 113 -242 253 -316 l92 -48 183 -3 c164
-3 189 -1 252 18 87 27 172 86 164 114 -5 14 -2 18 10 13 10 -4 20 1 26 13 17
32 11 47 -22 56 -25 7 -33 16 -33 33 -1 46 -68 52 -85 7 -5 -15 -23 -27 -52
-35 -23 -7 -63 -24 -88 -39 -41 -23 -54 -26 -150 -25 -104 1 -105 1 -183 44
-64 35 -89 57 -134 114 l-55 70 4 90 3 90 55 68 c123 154 283 196 464 123 47
-19 102 -46 123 -60 59 -40 134 -35 125 10 -2 14 0 24 7 24 6 0 11 -6 12 -12
1 -23 18 26 18 55 1 23 -5 31 -34 43 -19 8 -35 21 -35 29 0 9 -38 34 -91 60
l-91 45 -137 5 c-75 2 -164 0 -198 -4z"/>
<path d="M12787 2881 c-41 -6 -63 -15 -73 -29 -9 -13 -34 -25 -70 -32 -40 -9
-64 -21 -89 -46 -19 -19 -39 -34 -45 -34 -5 0 -24 -22 -41 -50 -17 -27 -34
-50 -39 -50 -20 0 -35 -102 -35 -240 0 -140 1 -147 29 -201 59 -118 128 -180
263 -238 70 -31 74 -31 240 -31 153 0 175 2 242 25 125 43 241 145 291 256 6
13 18 35 26 49 21 35 14 242 -9 268 -8 9 -28 48 -43 86 -34 86 -107 162 -191
200 -32 15 -74 36 -94 47 -30 15 -63 20 -170 23 -74 3 -160 1 -192 -3z m306
-195 c34 -15 81 -49 111 -79 72 -72 90 -127 84 -255 -5 -93 -6 -95 -42 -128
-20 -18 -36 -38 -36 -44 0 -6 -17 -17 -37 -26 -21 -9 -60 -27 -86 -41 -42 -22
-62 -25 -148 -25 -93 0 -103 2 -172 36 -73 36 -157 110 -157 139 0 8 -11 31
-25 51 -33 49 -36 145 -5 176 10 10 31 42 45 69 33 66 98 114 200 148 65 21
198 11 268 -21z"/>
<path d="M5412 2851 c-14 -17 -32 -31 -38 -31 -7 0 -15 -7 -18 -16 -8 -20 -8
-718 0 -765 4 -21 20 -52 40 -73 l35 -38 287 5 c254 4 294 6 349 24 128 43
248 137 296 233 20 41 22 60 22 205 l0 160 -31 58 c-59 107 -139 177 -244 212
-30 10 -66 25 -80 34 -20 13 -68 16 -307 19 l-284 3 -27 -30z m585 -176 c47
-8 138 -73 162 -115 12 -21 24 -59 27 -84 4 -25 13 -51 20 -57 18 -15 18 -95
0 -106 -7 -4 -24 -28 -36 -53 -19 -38 -84 -110 -100 -110 -3 0 -43 -7 -90 -15
-47 -9 -139 -20 -205 -26 -66 -5 -138 -12 -161 -15 -40 -6 -41 -5 -48 26 -10
52 -7 555 3 566 10 9 358 0 428 -11z"/>
<path d="M6714 2872 c-6 -4 -27 -26 -48 -49 l-37 -42 0 -351 c0 -248 4 -363
12 -388 17 -52 51 -100 74 -106 31 -9 778 -7 792 2 6 4 11 23 10 42 -2 29 1
35 18 35 13 0 21 8 23 22 3 17 -5 25 -31 37 -19 7 -38 19 -41 25 -5 8 -104 11
-322 11 -232 0 -313 -3 -308 -11 4 -7 1 -10 -7 -7 -11 3 -15 31 -17 111 l-3
107 265 0 265 0 31 30 c26 25 31 37 28 68 -2 30 -7 38 -27 40 -18 3 -22 9 -19
27 7 33 -13 35 -299 35 l-244 0 3 88 3 87 328 1 c309 1 329 2 341 20 8 10 13
22 10 25 -2 3 8 11 21 17 25 11 36 52 14 52 -17 0 -35 23 -43 53 l-6 27 -388
0 c-213 0 -392 -4 -398 -8z"/>
<path d="M9085 2872 c-5 -4 -18 -23 -29 -43 -16 -33 -17 -41 -5 -74 19 -53 47
-67 142 -74 l82 -6 3 -291 2 -292 -105 -4 c-132 -5 -138 -9 -121 -93 l12 -60
284 -3 c157 -1 295 0 308 3 20 5 22 10 16 40 -6 35 3 44 23 24 8 -8 13 -3 18
20 8 38 2 48 -34 56 -16 3 -35 13 -42 21 -6 8 -23 14 -38 14 -18 0 -22 -3 -13
-9 11 -7 10 -10 -3 -15 -33 -12 -64 -6 -77 17 -9 15 -15 92 -20 237 -8 241
-15 310 -31 310 -6 0 -3 8 6 17 14 14 36 18 99 19 l81 1 39 41 c41 44 49 72
20 72 -26 0 -42 20 -42 52 l0 28 -282 0 c-156 0 -287 -4 -293 -8z"/>
<path d="M8881 2784 c0 -11 3 -14 6 -6 3 7 2 16 -1 19 -3 4 -6 -2 -5 -13z"/>
<path d="M7779 1553 l-46 -4 -12 -54 c-17 -77 -41 -51 403 -447 l41 -37 5
-195 c3 -110 10 -200 15 -205 6 -6 35 -13 65 -17 53 -6 57 -5 90 27 l35 34 5
187 c5 186 5 188 30 205 28 19 362 326 399 366 20 22 22 32 16 69 -4 24 -12
49 -17 56 -16 19 -120 16 -144 -6 -10 -10 -29 -24 -40 -32 -12 -8 -76 -67
-144 -130 -67 -63 -129 -116 -136 -118 -8 -2 -21 -19 -29 -38 -18 -45 -41 -44
-91 4 -108 101 -263 243 -294 268 -19 16 -42 36 -50 45 -19 21 -44 26 -101 22z
m1021 -53 c0 -5 -2 -10 -4 -10 -3 0 -8 5 -11 10 -3 6 -1 10 4 10 6 0 11 -4 11
-10z"/>
<path d="M5396 1507 l-47 -43 3 -422 c2 -267 7 -425 13 -431 6 -6 35 -13 66
-17 53 -6 58 -5 90 24 l34 30 5 154 5 153 285 5 c324 6 318 4 400 97 51 59 64
106 56 211 -6 77 -10 88 -46 139 -25 35 -64 72 -102 97 l-63 41 -326 3 -326 3
-47 -44z m591 -153 c39 -3 79 -11 88 -18 28 -20 37 -100 20 -161 l-16 -52 -61
-7 c-33 -3 -150 -6 -259 -6 l-199 0 0 114 c0 63 2 120 5 128 4 11 40 13 178
11 94 -2 204 -6 244 -9z"/>
<path d="M6915 1504 c-40 -41 -105 -154 -105 -183 0 -6 -5 -11 -11 -11 -5 0
-24 -28 -41 -62 -16 -35 -47 -94 -69 -133 -21 -38 -53 -99 -71 -135 -18 -36
-39 -71 -45 -78 -18 -19 -49 -92 -58 -137 -4 -22 -10 -34 -12 -27 -3 6 -12 12
-20 12 -13 0 -15 -11 -10 -66 5 -71 12 -80 64 -90 69 -13 94 10 192 170 l34
56 284 0 284 0 16 -37 c8 -20 34 -70 56 -110 l42 -72 52 -7 c29 -3 59 -4 67
-1 39 15 21 165 -32 257 -21 36 -47 83 -59 105 -12 22 -54 100 -95 174 -40 74
-81 150 -92 170 -50 97 -103 180 -135 214 -35 37 -36 37 -113 37 l-77 0 -46
-46z m142 -213 c16 -16 43 -55 62 -88 19 -32 44 -74 56 -93 37 -59 63 -120 54
-126 -5 -3 -60 -4 -122 -3 -61 2 -142 -1 -179 -5 -60 -8 -68 -7 -74 9 -4 11
-1 29 9 44 59 96 116 212 122 249 8 52 32 56 72 13z"/>
</g>
</svg>
